<?xml version="1.0" standalone="no"?>
<!DOCTYPE svg PUBLIC "-//W3C//DTD SVG 20010904//EN"
 "http://www.w3.org/TR/2001/REC-SVG-20010904/DTD/svg10.dtd">
<svg version="1.0" xmlns="http://www.w3.org/2000/svg"
 width="284.000000pt" height="284.000000pt" viewBox="0 0 284.000000 284.000000"
 preserveAspectRatio="xMidYMid meet">

<g transform="translate(0.000000,284.000000) scale(0.100000,-0.100000)"
fill="#000000" stroke="none">
<path d="M1220 2643 c-91 -53 -255 -148 -365 -211 -473 -273 -541 -315 -562
-338 l-23 -25 0 -649 0 -648 29 -29 c16 -15 82 -59 147 -97 66 -38 252 -145
414 -239 162 -93 344 -199 404 -235 156 -93 157 -93 331 9 158 92 394 230 565
329 63 37 169 97 235 134 66 37 132 80 148 97 l27 29 0 285 c0 324 4 311 -83
255 -26 -17 -50 -30 -52 -30 -3 0 -21 -10 -40 -23 l-35 -22 0 -153 c0 -130 -3
-158 -19 -190 -17 -33 -55 -58 -337 -221 -176 -101 -364 -211 -419 -244 -78
-47 -111 -61 -152 -65 -51 -4 -51 -4 -360 174 -437 252 -483 279 -526 309 -68
46 -67 39 -67 574 0 518 2 535 53 572 12 9 141 84 287 169 146 84 327 188 403
232 153 89 195 103 241 84 29 -12 310 -171 686 -389 221 -127 210 -106 210
-390 0 -183 2 -219 15 -223 12 -5 104 43 183 94 10 7 13 62 13 253 -1 215 -3
247 -19 267 -9 13 -87 64 -172 114 -85 50 -211 123 -280 163 -69 40 -224 131
-345 201 -121 70 -238 138 -260 150 -68 40 -92 33 -275 -73z" fill="white"/>
<path d="M1347 2251 c-20 -12 -146 -85 -280 -162 -133 -78 -261 -152 -284
-165 -23 -13 -45 -33 -48 -44 -15 -48 -23 -42 480 -332 128 -74 179 -98 206
-98 36 0 41 3 386 203 73 42 137 77 143 77 7 0 10 -102 10 -309 l0 -309 -102
-60 c-278 -162 -388 -223 -416 -228 -39 -8 -79 6 -162 55 -36 21 -130 76 -210
121 -80 46 -152 90 -161 97 -13 11 -17 47 -22 214 -3 136 -9 204 -17 215 -19
22 -172 105 -185 100 -15 -5 -25 -230 -20 -459 3 -184 5 -192 70 -224 16 -9
93 -52 170 -98 435 -255 459 -268 506 -273 44 -4 56 1 190 79 79 45 236 136
349 201 121 69 210 127 217 140 17 31 18 815 2 852 -7 14 -23 31 -38 38 -14 7
-58 32 -98 56 -39 23 -77 42 -83 42 -6 0 -111 -58 -234 -128 -122 -71 -237
-134 -255 -140 -46 -16 -85 -4 -206 66 -136 78 -136 86 4 169 114 69 159 83
205 64 17 -7 44 -18 59 -24 25 -11 36 -8 90 22 86 47 127 79 121 95 -3 7 -62
46 -132 86 -146 84 -192 95 -255 61z" fill="white"/>
</g>
</svg>
