<?xml version="1.0" standalone="no"?>
<!DOCTYPE svg PUBLIC "-//W3C//DTD SVG 20010904//EN"
 "http://www.w3.org/TR/2001/REC-SVG-20010904/DTD/svg10.dtd">
<svg version="1.0" xmlns="http://www.w3.org/2000/svg"
 width="667.000000pt" height="379.000000pt" viewBox="0 0 667.000000 379.000000"
 preserveAspectRatio="xMidYMid meet">

<g transform="translate(0.000000,379.000000) scale(0.100000,-0.100000)"
fill="#000000" stroke="none">
<path d="M3300 3646 c-44 -15 -148 -71 -315 -168 -71 -41 -287 -166 -480 -278
-504 -292 -634 -370 -671 -406 l-34 -31 0 -865 0 -864 32 -31 c60 -55 102 -81
763 -463 127 -73 310 -180 407 -237 247 -145 297 -167 356 -159 48 6 135 54
747 411 149 86 350 203 448 258 98 56 208 125 245 152 l67 50 3 295 c3 299 -2
445 -18 470 -10 17 -13 15 -155 -69 l-100 -59 -5 -208 c-4 -176 -8 -214 -23
-242 -24 -43 -98 -100 -244 -185 -65 -38 -156 -92 -203 -120 -261 -153 -604
-349 -680 -389 -74 -38 -118 -36 -206 6 -77 37 -385 211 -759 429 -301 176
-341 202 -360 231 -30 46 -36 184 -33 787 3 592 3 594 25 636 29 53 68 78 518
338 198 114 401 232 450 261 134 79 219 116 268 116 37 1 78 -19 317 -154 416
-235 784 -449 835 -486 83 -59 89 -81 96 -412 3 -157 6 -286 7 -287 10 -16
177 63 238 112 l29 23 0 314 c0 172 -3 324 -7 338 -8 27 -108 98 -293 205 -55
32 -170 100 -255 150 -198 117 -378 222 -455 265 -33 18 -135 77 -227 131
-255 149 -270 156 -328 135z"/>
<path d="M3285 3021 c-47 -12 -822 -462 -848 -493 -46 -54 -9 -90 238 -236
512 -303 605 -352 665 -352 44 0 114 36 509 264 102 58 189 102 193 98 5 -5
11 -189 15 -409 l6 -399 -29 -21 c-42 -30 -485 -284 -579 -332 -129 -66 -154
-61 -397 82 -79 46 -197 116 -263 155 -66 39 -129 77 -139 85 -18 13 -21 37
-32 280 -7 145 -17 273 -22 283 -17 32 -235 154 -249 140 -15 -15 -24 -216
-21 -501 4 -378 -4 -352 124 -426 43 -25 203 -118 354 -206 461 -269 493 -284
569 -263 61 16 842 468 928 536 l26 21 9 239 c12 298 3 863 -14 899 -11 25
-132 103 -239 155 l-45 22 -55 -27 c-30 -15 -160 -87 -289 -160 -308 -174
-311 -175 -364 -175 -78 0 -356 155 -356 198 0 32 101 106 237 175 87 44 121
48 199 21 83 -29 104 -30 155 -3 109 55 187 118 174 139 -10 16 -122 87 -225
142 -72 39 -179 81 -199 77 -3 -1 -19 -4 -36 -8z"/>
</g>
</svg>
